<svg width="24" height="24" viewBox="0 0 24 24" fill="none" xmlns="http://www.w3.org/2000/svg">
<g clip-path="url(#clip0_317_544)">
<path d="M12.0002 11.3333C12.9231 11.3333 13.8254 11.0596 14.5928 10.5469C15.3603 10.0341 15.9584 9.30525 16.3116 8.45253C16.6648 7.59981 16.7572 6.66149 16.5772 5.75625C16.3971 4.851 15.9526 4.01948 15.3 3.36684C14.6474 2.71419 13.8158 2.26974 12.9106 2.08967C12.0053 1.90961 11.067 2.00202 10.2143 2.35523C9.36159 2.70844 8.63275 3.30658 8.11997 4.07401C7.60719 4.84144 7.3335 5.74369 7.3335 6.66667C7.3335 7.90435 7.82516 9.09133 8.70033 9.9665C9.5755 10.8417 10.7625 11.3333 12.0002 11.3333ZM12.0002 3.33334C12.6594 3.33334 13.3039 3.52883 13.8521 3.8951C14.4002 4.26138 14.8275 4.78197 15.0798 5.39106C15.3321 6.00015 15.3981 6.67037 15.2695 7.31697C15.1408 7.96358 14.8234 8.55752 14.3572 9.02369C13.891 9.48987 13.2971 9.80734 12.6505 9.93596C12.0039 10.0646 11.3336 9.99856 10.7246 9.74627C10.1155 9.49398 9.59487 9.06674 9.2286 8.51857C8.86233 7.97041 8.66683 7.32594 8.66683 6.66667C8.66683 5.78262 9.01802 4.93477 9.64314 4.30965C10.2683 3.68453 11.1161 3.33334 12.0002 3.33334Z" fill="white" fill-opacity="0.8"/>
<path d="M20.3135 16.2467C19.2444 15.1167 17.956 14.2166 16.5272 13.6015C15.0984 12.9863 13.5591 12.6691 12.0035 12.6691C10.4479 12.6691 8.90863 12.9863 7.47981 13.6015C6.05098 14.2166 4.76263 15.1167 3.6935 16.2467C3.46171 16.4942 3.33297 16.8208 3.3335 17.16V20.6667C3.3335 21.0203 3.47397 21.3594 3.72402 21.6095C3.97407 21.8595 4.31321 22 4.66683 22H19.3335C19.6871 22 20.0263 21.8595 20.2763 21.6095C20.5264 21.3594 20.6668 21.0203 20.6668 20.6667V17.16C20.6692 16.8218 20.5429 16.4953 20.3135 16.2467ZM19.3335 20.6667H4.66683V17.1533C5.61165 16.1584 6.74903 15.3662 8.00974 14.8249C9.27045 14.2835 10.6281 14.0043 12.0002 14.0043C13.3722 14.0043 14.7299 14.2835 15.9906 14.8249C17.2513 15.3662 18.3887 16.1584 19.3335 17.1533V20.6667Z" fill="white" fill-opacity="0.8"/>
</g>
<defs>
<clipPath id="clip0_317_544">
<rect width="24" height="24" fill="white"/>
</clipPath>
</defs>
</svg>
