<?xml version="1.0" encoding="utf-8"?>
<!-- Generator: Adobe Illustrator 26.5.0, SVG Export Plug-In . SVG Version: 6.00 Build 0)  -->
<svg version="1.1" id="Layer_1" xmlns="http://www.w3.org/2000/svg" xmlns:xlink="http://www.w3.org/1999/xlink" x="0px" y="0px"
	 viewBox="0 0 512 512" style="enable-background:new 0 0 512 512;" xml:space="preserve">
<style type="text/css">
	.st0{fill:#82BC00;}
</style>
<g id="XMLID_1_">
	<path id="XMLID_7_" d="M505.46,284.44v-1.4h0.84c0.56,0,1.12,0,1.12,0.7c0,0.7-0.28,0.7-0.98,0.7H505.46 M505.46,285.43h0.56
		l1.4,2.53h1.54l-1.54-2.53c0.84,0,1.4-0.42,1.4-1.54c0-1.4-0.98-1.82-2.53-1.82h-2.24v5.89h1.26v-2.53 M512.05,285
		c0-3.51-2.67-5.47-5.61-5.47s-5.75,1.96-5.75,5.47c0,3.51,2.67,5.47,5.75,5.47C509.38,290.48,512.05,288.51,512.05,285 M510.37,285
		c0,2.53-1.82,4.21-4.07,4.21l0,0c-2.24,0-4.07-1.68-4.07-4.21c0-2.53,1.82-4.21,4.07-4.21S510.37,282.48,510.37,285z"/>
	<path id="XMLID_16_" d="M303.69,226.63v62.02h17.54v-62.02L303.69,226.63z M166.04,226.49v62.02h17.68v-48.13h13.75
		c4.49,0,7.72,1.12,9.82,3.37c2.81,2.95,3.93,7.72,3.93,16.42v28.34h17.12v-34.24c0-24.41-15.57-27.78-30.87-27.78L166.04,226.49
		L166.04,226.49z M331.89,226.63v62.02h28.34c15.15,0,20.06-2.53,25.4-8.14c3.79-3.93,6.17-12.63,6.17-22.17
		c0-8.7-2.1-16.42-5.61-21.33c-6.45-8.7-15.86-10.38-29.75-10.38L331.89,226.63L331.89,226.63z M349.29,240.1h7.58
		c10.94,0,17.96,4.91,17.96,17.68s-7.02,17.68-17.96,17.68h-7.58V240.1z M278.57,226.63l-14.59,49.11l-14.03-49.11H231l19.92,62.02
		h25.26l20.2-62.02L278.57,226.63L278.57,226.63z M400.08,288.51h17.54v-62.02h-17.54V288.51z M449.19,226.63l-24.41,61.88h17.26
		l3.93-10.94h28.9l3.65,10.94h18.8l-24.7-61.88H449.19z M460.56,237.86l10.66,29.04h-21.61L460.56,237.86z"/>
	<path id="XMLID_21_" class="st0" d="M53.09,236.88v-8.56c0.84,0,1.68-0.14,2.53-0.14c23.29-0.7,38.59,20.06,38.59,20.06
		s-16.56,23.01-34.24,23.01c-2.53,0-4.77-0.42-6.88-1.12v-25.82c9.12,1.12,10.94,5.05,16.42,14.17l12.21-10.24
		c0,0-8.84-11.65-23.85-11.65C56.17,236.6,54.63,236.74,53.09,236.88 M53.09,208.81v12.77c0.84,0,1.68-0.14,2.53-0.14
		c32.41-1.12,53.6,26.66,53.6,26.66s-24.27,29.47-49.53,29.47c-2.39,0-4.49-0.28-6.59-0.56v7.86c1.68,0.28,3.51,0.42,5.47,0.42
		c23.57,0,40.55-12.07,57.11-26.24c2.67,2.24,13.89,7.58,16.28,9.82c-15.71,13.05-52.2,23.71-72.96,23.71
		c-1.96,0-3.93-0.14-5.75-0.28v11.08h89.52v-94.43H53.09V208.81z M53.09,270.13v6.73c-21.75-3.93-27.78-26.52-27.78-26.52
		s10.38-11.65,27.78-13.47v7.44l0,0c-9.12-1.12-16.28,7.44-16.28,7.44S40.88,266.06,53.09,270.13 M14.5,249.37
		c0,0,12.91-19.08,38.73-21.05v-6.88c-28.48,2.24-53.18,26.52-53.18,26.52s14.03,40.41,53.18,44.2v-7.3
		C24.32,281.08,14.5,249.37,14.5,249.37z"/>
</g>
</svg>
