<?xml version="1.0" encoding="utf-8"?>
<!-- Generator: Adobe Illustrator 24.3.0, SVG Export Plug-In . SVG Version: 6.00 Build 0)  -->
<svg version="1.1" id="Ñëîé_1" xmlns="http://www.w3.org/2000/svg" xmlns:xlink="http://www.w3.org/1999/xlink" x="0px" y="0px"
	 viewBox="0 0 512 512" style="enable-background:new 0 0 512 512;" xml:space="preserve">
<g id="logo">
	<g id="XMLID_2_">
		<path d="M120.18,308.91H91.73L83.06,288H35.84l-7.96,20.91H0l42.67-105.81h30.58L120.18,308.91z M58.31,228.41l-15.5,41.1h32.57
			L58.31,228.41z"/>
		<path id="XMLID_5_" d="M223.43,203.09h22.9v105.81h-26.31v-66.13l-28.59,33.14h-3.98l-28.59-33.14v66.13h-26.31V203.09h22.9
			l33.99,39.25L223.43,203.09z"/>
		<path d="M313.17,203.09c38.68,0,58.45,24.04,58.45,53.05c0,30.44-19.2,52.76-61.44,52.76h-43.8V203.09L313.17,203.09
			L313.17,203.09z M292.84,289.56h17.21c26.6,0,34.42-18.06,34.42-33.56c0-18.2-9.81-33.56-34.7-33.56h-16.92L292.84,289.56
			L292.84,289.56z"/>
	</g>
	<g id="XMLID_3_">
		<polygon id="XMLID_9_" points="478.72,228.27 424.11,228.27 390.97,194.99 512,194.99 512,316.02 478.72,282.74 		"/>
		<polygon id="XMLID_10_" points="424.11,282.88 424.11,234.81 389.83,269.08 389.83,317.01 437.76,317.01 472.04,282.88 		"/>
	</g>
</g>
</svg>
