<?xml version="1.0" encoding="utf-8"?>
<!-- Generator: Adobe Illustrator 26.5.0, SVG Export Plug-In . SVG Version: 6.00 Build 0)  -->
<svg version="1.1" id="Layer_1" xmlns="http://www.w3.org/2000/svg" xmlns:xlink="http://www.w3.org/1999/xlink" x="0px" y="0px"
	 viewBox="0 0 512 512" style="enable-background:new 0 0 512 512;" xml:space="preserve">
<style type="text/css">
	.st0{fill:#127CC1;}
	.st1{enable-background:new    ;}
	.st2{font-family:'ArialMT';}
	.st3{font-size:24.292px;}
</style>
<g id="XMLID_1_">
	<path id="path6" class="st0" d="M509.8,182.85c-24.14-117.47-251.47-124.93-398.05-35.4v9.95
		c146.44-75.63,354.17-75.05,373.04,33.21c6.44,35.84-13.75,73.14-49.59,94.65v28.09C478.35,297.25,522.53,245.9,509.8,182.85
		 M243.26,388.53c-101.23,9.36-206.56-5.27-221.34-84.7c-7.31-39.06,10.53-80.61,34.09-106.35v-13.75
		c-42.42,37.3-65.54,84.56-52.23,140.44c16.97,71.54,107.38,112.06,245.47,98.6c54.71-5.27,126.25-22.97,175.84-50.32v-38.91
		C380.04,360.45,305.43,382.83,243.26,388.53z"/>
	<path id="path8" class="st0" d="M417.05,165.88h-26.48v118.64c0,13.9,6.58,26.04,26.48,27.94"/>
	<path id="path10" class="st0" d="M101.21,209.18H74.59v77.53c0,13.9,6.58,26.04,26.48,27.94"/>
	<rect id="rect12" x="74.59" y="169.39" class="st0" width="26.48" height="25.31"/>
	<path id="path14" class="st0" d="M260.08,313.49c-21.5,0-30.57-15.07-30.57-29.84V180.8h26.19v28.38h19.9v21.36h-19.9v51.49
		c0,6,2.93,9.36,9.22,9.36h10.68v21.94h-15.51"/>
	<path id="path16" class="st0" d="M329.86,229.22c-8.92,0-15.95,4.68-18.87,10.97c-1.76,3.8-2.34,6.73-2.63,11.41h40.67
		C348.44,240.2,343.32,229.22,329.86,229.22 M308.36,269.6c0,13.46,8.48,23.41,23.41,23.41c11.7,0,17.41-3.22,24.14-9.95
		l16.24,15.65c-10.39,10.24-21.36,16.53-40.67,16.53c-25.16,0-49.3-13.75-49.3-53.98c0-34.38,21.07-53.83,48.71-53.83
		c28.09,0,44.18,22.67,44.18,52.52v9.51L308.36,269.6"/>
	<path id="path18" class="st0" d="M172.6,230.54c7.75,0,10.83,3.8,10.83,9.95v73h26.33v-73.14c0-14.92-7.9-31.31-31.01-31.31h-54.27
		v104.3h26.19v-82.95"/>
	<g id="XMLID_7_" class="st1">
		<g id="XMLID_9_">
			<text id="XMLID_32_" transform="matrix(1.0217 0 0 1 432.0869 183.1909)" class="st0 st2 st3">®</text>
		</g>
	</g>
</g>
</svg>
