<?xml version="1.0" encoding="utf-8"?>
<!-- Generator: Adobe Illustrator 26.5.0, SVG Export Plug-In . SVG Version: 6.00 Build 0)  -->
<svg version="1.1" id="Layer_1" xmlns="http://www.w3.org/2000/svg" xmlns:xlink="http://www.w3.org/1999/xlink" x="0px" y="0px"
	 viewBox="0 0 512 512" style="enable-background:new 0 0 512 512;" xml:space="preserve">
<style type="text/css">
	.st0{fill:#0068B5;}
</style>
<g>
	<rect y="151.02" class="st0" width="40.3" height="40.3"/>
	<path d="M39.3,360.98V215.84H1.15v145.14L39.3,360.98L39.3,360.98z M292.86,362.42v-35.57c-5.59,0-10.33-0.29-13.77-0.86
		c-4.02-0.57-7.03-2.01-9.04-4.02c-2.01-2.01-3.3-4.88-4.02-8.6c-0.57-3.59-0.86-8.32-0.86-14.05v-50.77h27.68v-32.7h-27.68V159.2
		h-38.29v140.4c0,11.9,1,21.94,3.01,29.97c2.01,7.89,5.45,14.34,10.18,19.22c4.73,4.88,11.04,8.32,18.64,10.47
		c7.74,2.15,17.5,3.15,29.11,3.15h5.04V362.42z M512,360.98V148.01h-38.29v212.97L512,360.98L512,360.98z M190.03,230.04
		c-10.61-11.47-25.53-17.21-44.46-17.21c-9.18,0-17.5,1.86-25.1,5.59c-7.46,3.73-13.91,8.89-18.93,15.49l-2.15,2.73v-2.44v-18.36
		H61.67v145.14h38.01v-77.3v5.31c0-0.86,0-1.72,0-2.58c0.43-13.62,3.73-23.66,10.04-30.12c6.74-6.88,14.92-10.33,24.24-10.33
		c11.04,0,19.5,3.44,25.1,10.04c5.45,6.6,8.32,15.92,8.32,27.82v0.29v76.73h38.58v-82.32C206.09,257.86,200.64,241.51,190.03,230.04
		z M453.92,288.13c0-10.47-1.86-20.22-5.45-29.4c-3.73-9.04-8.89-17.07-15.35-23.95c-6.6-6.88-14.49-12.19-23.66-16.06
		c-9.18-3.87-19.36-5.74-30.4-5.74c-10.47,0-20.36,2.01-29.54,5.88c-9.18,4.02-17.21,9.32-23.95,16.06
		c-6.74,6.74-12.19,14.77-16.06,23.95c-4.02,9.18-5.88,19.07-5.88,29.54s1.86,20.36,5.59,29.54c3.73,9.18,9.04,17.21,15.63,23.95
		c6.6,6.74,14.77,12.19,24.24,16.06c9.47,4.02,19.93,6.02,31.12,6.02c32.41,0,52.49-14.77,64.54-28.54l-27.54-20.94
		c-5.74,6.88-19.5,16.21-36.71,16.21c-10.76,0-19.65-2.44-26.39-7.46c-6.74-4.88-11.33-11.76-13.77-20.22l-0.43-1.29h114.02
		L453.92,288.13L453.92,288.13z M340.19,274.79c0-10.61,12.19-29.11,38.44-29.26c26.24,0,38.58,18.5,38.58,29.11L340.19,274.79z"/>
</g>
</svg>
