<?xml version="1.0" encoding="utf-8"?>
<!-- Generator: Adobe Illustrator 24.3.0, SVG Export Plug-In . SVG Version: 6.00 Build 0)  -->
<svg version="1.1" id="Layer_1" xmlns="http://www.w3.org/2000/svg" xmlns:xlink="http://www.w3.org/1999/xlink" x="0px" y="0px"
	 viewBox="0 0 512 512" style="enable-background:new 0 0 512 512;" xml:space="preserve">
<style type="text/css">
	.st0{fill:#231F20;}
</style>
<g id="XMLID_1_">
	<path id="XMLID_3_" class="st0" d="M72.66,191.47c0,0,10.52,21.6,8.7,30.58c0,0,27.77,8.98,30.86,23.85
		C112.22,245.76,127.37,225.84,72.66,191.47z"/>
	<path id="XMLID_4_" class="st0" d="M61.86,223.88c2.67,5.75,3.93,11.78,5.47,18.24l-15.85-6.03c1.4-9.68-7.86-24.13-7.86-24.13
		L61.86,223.88z"/>
	<path id="XMLID_5_" class="st0" d="M33.81,238.75c1.68,4.63,3.79,10.38,4.77,15.43l-14.17-3.51c1.4-9.68-7.57-21.18-7.57-21.18
		L33.81,238.75z"/>
	<path id="XMLID_6_" class="st0" d="M64.95,215.6c0,0,63.68,44.75,67.89,62.14c3.23,13.05-6.03,25.11-6.03,25.11
		S121.9,268.76,0,320.53c12.34-13.75,19.08-31.42,17.25-50.36c-0.84-7.72-2.67-15.15-6.03-21.74l28.62,15.01c0,0.42,0,0.98,0.14,1.4
		c1.12,11.5,0.28,22.86-2.38,33.39c5.89-12.34,8.7-26.37,7.29-40.96c-0.84-8.84-2.95-17.25-6.45-24.83l30.44,20.34
		c0.14,0.98,0.14,2.1,0.28,2.95c1.26,12.76,0,25.25-3.37,36.61c7.15-13.33,10.8-28.76,9.12-44.75
		C73.92,236.08,70.42,225.28,64.95,215.6z"/>
	<path id="XMLID_7_" class="st0" d="M142.66,272.55c0,18.38,15.15,31.14,34.51,30.3c11.5-0.42,18.38-4.77,20.76-5.89
		c0-3.51,0-9.68,0-15.85c0,0-1.12,0-2.38,0c-2.24,9.68-8,17.67-18.24,17.67c-12.48,0-22.16-12.2-22.16-26.37
		c0-14.17,9.82-26.37,22.16-26.37c10.1,0,15.99,7.86,18.24,17.67c1.26,0,2.38,0,2.38,0c0-6.17,0-12.34,0-15.85
		c-2.38-1.12-9.12-5.19-20.76-5.89C157.81,241.41,142.66,254.18,142.66,272.55z"/>
	<path id="XMLID_10_" class="st0" d="M233.56,242.11c-16.97,0-30.02,13.61-30.02,30.44c0,16.69,13.05,30.44,30.02,30.44
		s30.02-13.61,30.02-30.44C263.43,255.72,250.39,242.11,233.56,242.11z M233.56,299.34c-10.52,0-17.67-12.48-17.67-26.79
		c0-14.17,7.15-26.79,17.67-26.79c10.52,0,17.67,12.48,17.67,26.79C251.23,286.72,244.08,299.34,233.56,299.34z"/>
	<path id="XMLID_11_" class="st0" d="M332.45,254.6c0-4.91,5.05-8.84,10.24-8.98c5.75,0,11.36,2.52,14.31,13.61
		c0.28,0,1.54,0,1.54,0V245.9c-2.38-0.84-8-3.79-16.13-3.79c-9.82,0-19.64,6.03-19.64,17.25c0,20.06,27.49,16.27,27.49,29.74
		c0,6.73-4.07,9.96-10.38,9.96c-6.17,0-13.33-5.05-15.57-15.15c-1.12,0-2.1,0-2.1,0v14.59c2.52,0.84,8.98,4.63,17.39,4.63
		c14.59,0,21.6-9.68,21.6-18.38C361.49,263.15,332.45,269.61,332.45,254.6z"/>
	<path id="XMLID_12_" class="st0" d="M441.72,249.41c0-1.26,0.84-2.38,1.68-2.95l3.79-2.1v-0.98h-22.58v0.98l3.79,2.1
		c1.12,0.7,1.68,1.68,1.68,2.95v46.29c0,1.26-0.84,2.38-1.68,2.95l-3.79,2.1v0.98h22.58v-0.98l-3.79-2.1
		c-1.12-0.7-1.68-1.68-1.68-2.95V249.41z"/>
	<path id="XMLID_13_" class="st0" d="M264,243.38v0.98l3.79,2.1c1.12,0.7,1.68,1.68,1.68,2.95v46.29c0,1.26-0.84,2.38-1.68,2.95
		l-3.79,2.1v0.98h22.58v-0.98l-3.79-2.1c-1.12-0.7-1.68-1.68-1.68-2.95v-46.29c0-0.84,0.28-1.4,0.7-2.1c0.28-0.42,0.84-0.7,1.4-0.7
		h7.29c4.49,0,9.12,5.19,9.12,11.64v3.37c0,6.45-4.21,10.94-9.12,10.94h-4.49c0,0,14.17,24.55,16.41,27.21
		c3.23,3.93,13.61,9.12,21.6,7.43c-7.86-4.21-15.29-17.81-21.46-29.18c-3.37-0.42-5.47-1.54-7.01-2.52
		c12.48,0,15.57-10.24,15.57-15.29c0-13.75-9.68-16.55-20.48-16.55H264L264,243.38L264,243.38z"/>
	<path id="XMLID_14_" class="st0" d="M451.96,243.38v0.98l3.79,2.1c1.12,0.7,1.68,1.68,1.68,2.95v46.29c0,1.26-0.84,2.38-1.68,2.95
		l-3.79,2.1v0.98h22.58v-0.98l-3.79-2.1c-1.12-0.7-1.68-1.68-1.68-2.95v-46.29c0-0.84,0.28-1.4,0.7-2.1c0.28-0.42,0.84-0.7,1.4-0.7
		h7.29c4.49,0,9.12,5.19,9.12,11.64v3.37c0,6.45-4.21,10.94-9.12,10.94h-4.49c0,0,14.17,24.55,16.41,27.21
		c3.23,3.93,13.61,9.12,21.6,7.43c-7.86-4.21-15.29-17.81-21.46-29.18c-3.37-0.42-5.47-1.54-7.01-2.52
		c12.48,0,15.57-10.24,15.57-15.29c0-13.75-9.68-16.55-20.48-16.55h-26.65V243.38z"/>
	<path id="XMLID_17_" class="st0" d="M417.88,298.78c-0.84-0.42-1.26-1.12-1.54-1.68l-21.6-53.72h-7.01l-21.46,53.58
		c-0.28,0.84-0.84,1.4-1.54,1.68l-3.79,2.1v0.98h17.39v-0.98l-3.37-1.68c-1.12-0.7-1.96-1.68-1.96-3.23c0-0.42,0.14-0.98,0.28-1.26
		l4.77-11.64h20.2l4.77,11.64c0.14,0.28,0.14,0.84,0.14,1.12c0,1.12-0.42,2.1-1.26,2.67c-0.14,0.14-0.28,0.14-0.42,0.28l-3.79,2.1
		v0.98h23.85v-0.98L417.88,298.78z M379.58,278.72l8.42-20.9l8.42,20.9H379.58z"/>
</g>
</svg>
